<svg width="89" height="80" viewBox="0 0 89 80" fill="none" xmlns="http://www.w3.org/2000/svg">
<path d="M46.3 22.7C67.9 22.7 78.1 29.4 78.1 51C78.1 72.6 72.4 79.3 50.9 79.3C29.4 79.3 0 72.6 0 51C0 29.4 24.7 22.7 46.3 22.7Z" fill="#0640FF"/>
<path d="M58.9 1C75.2 1 88.5 14.2 88.5 30.6C88.5 46.9 75.3 60.2 58.9 60.2C42.6 60.2 29.2999 47 29.2999 30.6C29.2999 14.3 42.5 1 58.9 1Z" fill="#F9A45A"/>
<path d="M58.9 5.5C72.8 5.5 84 16.7 84 30.6C84 44.5 72.8 55.7 58.9 55.7C45 55.7 33.7999 44.5 33.7999 30.6C33.7999 16.7 45 5.5 58.9 5.5Z" stroke="#F9A45A" stroke-width="10"/>
<path d="M50.8 41.4L62.5 30.3L54.4 14.7" stroke="#0640FF" stroke-width="8"/>
</svg>
