<svg width="103" height="97" viewBox="0 0 103 97" fill="none" xmlns="http://www.w3.org/2000/svg">
<path d="M47.4 39.1129C69.4 39.1129 79.8 46.0129 79.8 68.0129C79.8 90.0129 74 96.913 52 96.913C30 96.913 0 90.0129 0 68.0129C0.1 46.0129 25.4 39.1129 47.4 39.1129Z" fill="#0640FF"/>
<path d="M79.1478 47.9938C79.1478 47.9938 86.0417 49.7069 87.4225 59.006C87.3201 60.2053 92.5493 44.622 80.762 40.5999C68.9748 36.5779 79.1478 47.9938 79.1478 47.9938Z" fill="#F9A45A"/>
<path d="M70.3126 17.4882C83.0982 22.112 90.6729 33.2228 86.0491 46.0084C81.4253 58.794 67.0359 56.3662 54.2505 51.6424C41.4651 46.9187 37.6812 39.614 42.3048 26.9283C46.9284 14.2426 57.527 12.8644 70.3126 17.4882Z" fill="#F9A45A"/>
<path d="M57.0966 30.43C55.6054 30.43 54.3966 31.6388 54.3965 33.13C54.3965 34.6211 55.6053 35.83 57.0964 35.8301C58.5876 35.8301 59.7965 34.6213 59.7966 33.1301C59.7966 31.6389 58.5877 30.4301 57.0966 30.43Z" fill="#F9A45A"/>
<path d="M64.469 33.1228C62.9779 33.1228 61.7689 34.3316 61.7689 35.8228C61.7689 37.314 62.9778 38.5228 64.4689 38.5229C65.9601 38.5229 67.1689 37.3141 67.1689 35.8229C67.169 34.3317 65.9602 33.1229 64.469 33.1228Z" fill="#F9A45A"/>
<path d="M71.8409 35.8154C70.3497 35.8154 69.1408 37.0242 69.1407 38.5154C69.1407 40.0066 70.3496 41.2154 71.8408 41.2155C73.3319 41.2155 74.5407 40.0067 74.5408 38.5155C74.5408 37.0243 73.332 35.8155 71.8409 35.8154Z" fill="#F9A45A"/>
<path d="M42.1158 62.2453C42.1158 62.2453 37.0118 61.3685 35.4814 54.6754C35.4773 53.7754 32.53 65.3889 41.3408 67.7489C50.0516 70.1094 42.1158 62.2453 42.1158 62.2453Z" fill="#F9A45A"/>
<path d="M50.2142 83.9088C40.6021 81.2524 34.4672 73.5802 37.1236 63.968C39.7799 54.3559 50.4844 55.3072 59.997 58.0641C69.5096 60.8209 72.8327 65.9059 70.0759 75.4185C67.3191 84.9311 59.8269 86.6651 50.2142 83.9088Z" fill="#F9A45A"/>
<path d="M58.8138 69.8179C57.7092 69.8179 56.8137 70.7133 56.8136 71.8179C56.8136 72.9225 57.709 73.818 58.8136 73.8181C59.9182 73.8181 60.8137 72.9227 60.8138 71.8181C60.8138 70.7135 59.9184 69.818 58.8138 69.8179Z" fill="#F9A45A"/>
<path d="M53.2368 68.2298C52.1322 68.2297 51.2367 69.1251 51.2366 70.2297C51.2366 71.3343 52.132 72.2298 53.2366 72.2299C54.3412 72.2299 55.2367 71.3345 55.2367 70.2299C55.2368 69.1253 54.3414 68.2298 53.2368 68.2298Z" fill="#F9A45A"/>
<path d="M47.6599 66.6417C46.5553 66.6417 45.6598 67.5371 45.6598 68.6417C45.6597 69.7463 46.5551 70.6418 47.6597 70.6418C48.7643 70.6419 49.6598 69.7465 49.6599 68.6419C49.6599 67.5373 48.7645 66.6418 47.6599 66.6417Z" fill="#F9A45A"/>
</svg>
