<svg width="39" height="49" viewBox="0 0 39 49" fill="none" xmlns="http://www.w3.org/2000/svg">
<path opacity="0.13" d="M8.19363 22.8067C12.1766 14.9293 18.1492 9.9309 26.0266 13.9138C33.904 17.8968 38.1719 21.8662 34.1889 29.7436C30.206 37.621 19.4806 46.4231 11.6032 42.4401C3.7258 38.4572 4.21068 30.6841 8.19363 22.8067Z" fill="#F13333"/>
<path d="M30.9031 31.0704C30.9031 31.8357 30.7631 32.5077 30.4831 33.0864C30.2217 33.6837 29.7831 34.1784 29.1671 34.5704C28.5511 34.9624 27.7577 35.261 26.7871 35.4664C25.8164 35.6717 24.6311 35.7744 23.2311 35.7744C21.9991 35.7744 20.9537 35.6904 20.0951 35.5224C19.2364 35.373 18.5271 35.149 17.9671 34.8504C17.4257 34.5704 17.0337 34.2157 16.7911 33.7864C16.5484 33.357 16.4271 32.8717 16.4271 32.3304C16.4271 31.509 16.6511 30.865 17.0991 30.3984C17.5657 29.9504 18.2097 29.661 19.0311 29.5304V29.2224C18.4337 29.073 17.9671 28.7837 17.6311 28.3544C17.3137 27.9064 17.1551 27.3837 17.1551 26.7864C17.1551 26.413 17.2297 26.0864 17.3791 25.8064C17.5284 25.5077 17.7244 25.2557 17.9671 25.0504C18.2284 24.845 18.5177 24.677 18.8351 24.5464C19.1524 24.397 19.4884 24.285 19.8431 24.2104V24.0984C18.9471 23.6877 18.2751 23.1184 17.8271 22.3904C17.3977 21.6624 17.1831 20.813 17.1831 19.8424C17.1831 18.349 17.6964 17.1544 18.7231 16.2584C19.7497 15.3437 21.2524 14.8864 23.2311 14.8864C23.6791 14.8864 24.1177 14.9144 24.5471 14.9704C24.9951 15.0264 25.4057 15.1197 25.7791 15.2504V14.7744C25.7791 13.3557 26.4697 12.6464 27.8511 12.6464H30.1191V15.3904H27.0111V15.7824C27.7764 16.2117 28.3457 16.7717 28.7191 17.4624C29.0924 18.153 29.2791 18.9464 29.2791 19.8424C29.2791 21.317 28.7657 22.5024 27.7391 23.3984C26.7311 24.2944 25.2284 24.7424 23.2311 24.7424C22.3724 24.7424 21.6257 24.6584 20.9911 24.4904C20.7111 24.621 20.4684 24.7984 20.2631 25.0224C20.0577 25.2277 19.9551 25.489 19.9551 25.8064C19.9551 26.5344 20.5897 26.8984 21.8591 26.8984H25.7791C27.5711 26.8984 28.8684 27.2717 29.6711 28.0184C30.4924 28.7464 30.9031 29.7637 30.9031 31.0704ZM27.5431 31.4904C27.5431 31.0237 27.3564 30.6597 26.9831 30.3984C26.6097 30.137 25.9657 30.0064 25.0511 30.0064H20.0671C19.5631 30.3797 19.3111 30.8837 19.3111 31.5184C19.3111 32.0784 19.5444 32.517 20.0111 32.8344C20.4777 33.1517 21.2711 33.3104 22.3911 33.3104H24.1831C25.3591 33.3104 26.2084 33.161 26.7311 32.8624C27.2724 32.5637 27.5431 32.1064 27.5431 31.4904ZM23.2311 22.3064C24.9857 22.3064 25.8631 21.5597 25.8631 20.0664V19.5904C25.8631 18.097 24.9857 17.3504 23.2311 17.3504C21.4764 17.3504 20.5991 18.097 20.5991 19.5904V20.0664C20.5991 21.5597 21.4764 22.3064 23.2311 22.3064Z" fill="#F13333"/>
</svg>
