<svg width="68" height="53" viewBox="0 0 68 53" fill="none" xmlns="http://www.w3.org/2000/svg">
<path opacity="0.71" d="M46.0002 10.2465C60.8676 10.2465 68 14.8675 68 29.8354C68 44.8033 64.0822 49.4242 49.2148 49.4242C34.3473 49.4242 14.0553 44.8033 14.0553 29.8354C14.0553 14.8675 31.1327 10.2465 46.0002 10.2465Z" fill="#F9A45A"/>
<path opacity="0.71" d="M26.4113 46.4105C8.73108 46.4105 0.292801 40.8855 0.292801 23.2053C0.292801 5.52506 4.91378 0 22.6945 0C40.4751 0 64.484 5.52506 64.484 23.2053C64.484 40.8855 44.192 46.4105 26.4113 46.4105Z" fill="#0640FF"/>
<path d="M3.60785 34.8582C7.22426 33.8536 11.142 34.7577 13.8543 37.3696C13.8543 37.3696 0.393271 42.6937 0.694638 48.3192C0.996005 53.9448 -2.4195 36.6664 3.60785 34.8582Z" fill="#4D77FF"/>
<path d="M64.6849 37.6709C59.4612 35.8627 55.7444 40.1823 55.7444 40.1823C55.7444 40.1823 67.4977 45.5064 67.1963 51.132C66.895 56.7575 69.9086 39.4791 64.6849 37.6709Z" fill="#FABE89"/>
</svg>
